<?xml version="1.0" encoding="utf-8"?>
<!-- Generator: Adobe Illustrator 27.5.0, SVG Export Plug-In . SVG Version: 6.00 Build 0)  -->
<svg version="1.1" id="Capa_1" xmlns="http://www.w3.org/2000/svg" xmlns:xlink="http://www.w3.org/1999/xlink" x="0px" y="0px"
	 viewBox="0 0 2229 2019" style="enable-background:new 0 0 2229 2019;" xml:space="preserve">
<g>
	<path style="fill:#5EC0C6;" d="M2052.329,379.536c-34.643-34.644-212.192-10.898-363.759,75.784
		c-114.345,65.394-400.546,322.62-472.022,420.057c-16.529,22.532-36.906,55.272-54.943,89.877
		c-9.742-21.602-19.776-34.53-19.776-34.53s22.454-14.225,14.969-42.676c-3.799-14.443-7.145-28.46-16.099-37.594
		c2.981-4.453,5.438-8.395,5.438-8.395c92.243-187.604,153.532-293.246,166.306-288.531c12.773,4.714,31.807,5.315,44.766-12.147
		c12.96-17.461,9.738-34.727-1.385-37.44c-12.768-3.113-35.486,18.008-35.486,18.008
		c-49.333,43.068-143.391,233.474-180.658,315.711c-1.497,3.304-2.782,6.209-3.884,8.774c-8.84-5.98-21.924-8.352-42.614-4.619
		c0,0-5.213,3.471-11.355,9.202c-1.434-3.508-3.322-7.876-5.807-13.356c-37.267-82.237-131.324-272.643-180.657-315.711
		c0,0-22.72-21.121-35.486-18.008c-11.125,2.712-14.344,19.978-1.386,37.44c12.959,17.461,31.994,16.861,44.766,12.147
		c12.773-4.715,74.063,100.928,166.307,288.531c0,0,4.302,6.9,8.428,12.756c-9.367,9.749-18.87,23.876-14.749,38.568
		c7.485,26.673,14.474,30.229,14.474,30.229s-10.891,11.986-18.918,25.831c-15.748-28.625-32.494-54.999-46.48-74.065
		C940.84,777.94,654.639,520.714,540.294,455.32c-151.566-86.681-329.116-110.427-363.76-75.784c0,0-51.965,73.618,7.376,292.737
		c15.98,59.002,51.102,127.312,77.069,209.598c30.185,95.654,60.291,149.735,94.997,179.364
		c34.328,29.305,95.492,36.523,170.057,40.726c56.457,3.182,120.593,4.665,186.637,12.655
		c-127.022,8.51-237.199,28.087-276.307,63.893c-43.147,39.506-64.956,112.592,75.784,277.151
		c54.306,63.496,175.384,142.906,205.698,162.393c30.313,19.487,66.356,57.315,154.762,22.671
		c60.545-23.726,144.302-178.925,193.868-297.348c1.826,13.779,5.163,26.583,11.737,37.222
		c15.52,25.119,13.097,37.342,14.969,62.236c1.871,24.894,1.694,36.829-7.245,59.945c-8.94,23.116-2.111,66.304,16.6,76.974
		c18.711,10.669,43.036,21.338,54.263,0c11.227-21.338,0-60.458,0-92.465c0-32.007-3.742-69.349-3.742-92.465
		c0,0,15.637-6.943,15.956-28.45c0.036-2.399,0.112-4.698,0.201-6.966c50.16,115.958,129.198,258.648,187.045,281.317
		c88.407,34.644,124.449-3.184,154.763-22.671c30.313-19.487,151.391-98.897,205.698-162.393
		c140.74-164.558,118.93-237.645,75.782-277.151c-39.108-35.807-149.286-55.384-276.306-63.893
		c66.043-7.99,130.178-9.473,186.636-12.655c74.565-4.203,135.729-11.421,170.057-40.726
		c34.707-29.629,64.812-83.709,94.997-179.364c25.967-82.286,61.089-150.596,77.069-209.598
		C2104.295,453.154,2052.329,379.536,2052.329,379.536z"/>
	<path style="fill:#3EA5A6;" d="M2052.329,379.536c-34.643-34.644-212.192-10.898-363.759,75.784
		c-114.345,65.394-400.546,322.62-472.022,420.057c-16.529,22.532-36.906,55.272-54.943,89.877
		c-9.742-21.602-19.776-34.53-19.776-34.53s22.454-14.225,14.969-42.676c-3.799-14.443-7.145-28.46-16.099-37.594
		c2.981-4.453,5.438-8.395,5.438-8.395c92.243-187.604,153.532-293.246,166.306-288.531c12.773,4.714,31.807,5.315,44.766-12.147
		c12.96-17.461,9.738-34.727-1.385-37.44c-12.768-3.113-35.486,18.008-35.486,18.008
		c-49.333,43.068-143.391,233.474-180.658,315.711c-1.497,3.304-2.782,6.209-3.884,8.774c-8.84-5.98-21.924-8.352-42.614-4.619
		c0,0-5.213,3.471-11.355,9.202c-1.434-3.508-3.322-7.876-5.807-13.356c-37.267-82.237-131.324-272.643-180.657-315.711
		c0,0-22.72-21.121-35.486-18.008c-11.125,2.712-14.344,19.978-1.386,37.44c12.959,17.461,31.994,16.861,44.766,12.147
		c12.773-4.715,74.063,100.928,166.307,288.531c0,0,4.302,6.9,8.428,12.756c-9.367,9.749-18.87,23.876-14.749,38.568
		c7.485,26.673,14.474,30.229,14.474,30.229s-10.891,11.986-18.918,25.831c-15.748-28.625-32.494-54.999-46.48-74.065
		C940.84,777.94,654.639,520.714,540.294,455.32c-151.566-86.681-329.116-110.427-363.76-75.784c0,0-51.965,73.618,7.376,292.737
		c15.98,59.002,51.102,127.312,77.069,209.598c30.185,95.654,60.291,149.735,94.997,179.364
		c34.328,29.305,95.492,36.523,170.057,40.726c-70.123-13.692-121.071-39.795-143.801-55.531
		c-28.148-19.487-21.652-32.479-17.322-45.47c2.415-7.243,35.788-7.754,67.851-6.79c60.758,4.483,121.472,10.253,181.809,18.6
		c73.472,10.117,144.467,33.503,218.425,41.146c36.956,4.766,74.096-0.905,111.122,0.434c9.149,0.343,18.351,1.214,27.176,3.374
		c3.645,1.572,7.327,3.053,11.089,4.317c22.881,8.136,45.078,17.471,67.824,25.99c4.45,1.64,9.022,3.097,13.669,4.247
		c3.02,18.248,5.833,36.781,7.242,50.13c-0.449,0.002-0.917,0.004-1.38,0.006l-0.059-1.887c-16.11,0.52-34.663,0.782-53.719,0.782
		c-47.526,0.002-98.241-1.633-121.873-4.911c-27.226-3.774-50.334-6.858-70.015-9.395c-9.692-1.905-18.708-2.858-26.204-3.307
		c-28.548-3.517-47.473-5.539-59.769-6.695c39.109-4.547,66.257-6.615,66.269-6.616c-31.028,0.844-61.828,2.229-91.697,4.23
		c-127.022,8.51-237.199,28.087-276.307,63.893c-43.147,39.506-64.956,112.592,75.784,277.151
		c54.306,63.496,175.384,142.906,205.698,162.393c30.313,19.487,66.356,57.315,154.762,22.671
		c60.545-23.726,144.302-178.925,193.868-297.348c1.826,13.779,5.163,26.583,11.737,37.222
		c15.52,25.119,13.097,37.342,14.969,62.236c1.871,24.894,1.694,36.829-7.245,59.945c-8.94,23.116-2.111,66.304,16.6,76.974
		c18.711,10.669,43.036,21.338,54.263,0c11.227-21.338,0-60.458,0-92.465c0-32.007-3.742-69.349-3.742-92.465
		c0,0,15.637-6.943,15.956-28.45c0.036-2.399,0.112-4.698,0.201-6.966c50.16,115.958,129.198,258.648,187.045,281.317
		c88.407,34.644,124.449-3.184,154.763-22.671c30.313-19.487,151.391-98.897,205.698-162.393
		c140.74-164.558,118.93-237.645,75.782-277.151c-39.108-35.807-149.286-55.384-276.306-63.893
		c-2.664,0.322-5.326,0.638-7.996,0.983c-11.25,0.646-51.753,3.939-173.421,20.8c-23.632,3.278-74.348,4.913-121.876,4.911
		c-14.411,0-28.525-0.151-41.517-0.449c-0.364-6.616-1.164-13.057-2.373-19.875c-1.254-7.074-0.991-17.576-0.159-29.745
		c3.318-0.949,6.595-2.027,9.806-3.209c22.745-8.52,44.941-17.855,67.824-25.992c3.654-1.227,7.234-2.659,10.779-4.178
		c20.849-5.181,43.108-3.656,64.476-3.177c24.64,1.041,49.515,2.342,74.132-0.769c73.957-7.641,144.954-31.028,218.425-41.144
		c60.338-8.348,121.052-14.119,181.812-18.601c32.063-0.964,65.433-0.453,67.848,6.79c4.33,12.991,10.826,25.982-17.322,45.47
		c-22.73,15.737-73.678,41.84-143.801,55.531c74.565-4.203,135.729-11.421,170.057-40.726
		c34.707-29.629,64.812-83.709,94.997-179.364c25.967-82.286,61.089-150.596,77.069-209.598
		C2104.295,453.154,2052.329,379.536,2052.329,379.536z M758.608,672.44c-1.969-1.02-3.901-2.107-5.887-3.096
		c-32.567-16.695-69.702-25.991-106.648-23.739c-14.113,0.631-28.13,2.532-41.991,5.215c-1.257-0.929-4.954-3.576-5.946-4.327
		c-4.057-2.979-12.352-8.953-16.448-11.868c-5.347-3.53-20.083-12.775-25.672-16.278c-71.456-41.342-147.102-75.127-226.119-99.17
		c-27.938-11.337-58.932-27.081-62.423-42.206c-6.495-28.148,41.139-32.479,41.139-32.479
		C448.353,444.493,624.334,564.726,758.608,672.44z M250.152,574.408c-25.983-19.487-2.165-30.314,16.713-45.47
		c11.627-9.335,50.214-4.707,78.152,0.226c41.351,11.099,81.747,26.405,120.583,44.268c42.488,19.191,82.912,44.868,120.225,72.761
		c1.785,1.329,5.745,4.286,8.814,6.576c-7.019,1.542-13.996,3.245-20.913,5.098c-14.93,3.764-28.533,8.476-43.467,9.544
		c-6.462,0.867-14.619,1.643-23.096,2.941c-35.966-37.864-115.415-54.937-170.195-66.992
		C318.053,597.289,269.348,588.805,250.152,574.408z M342.524,609.342c1.241,0.151,2.486,0.291,3.725,0.441
		c47.518,7.439,120.521,22.829,153.175,61.927c-16.736,3.281-33.131,9.297-38.91,22.794c-5.941,16.005-4.531,33.484,0.398,49.649
		c-10.096-5.581-22.414-11.531-31.116-15.99c-38.15-18.247-76.127-35.429-115.557-50.604c-10.885-9.011-62.046-27.994-66.251-49.021
		C243.725,607.234,327.458,615.266,342.524,609.342z M276.135,784.436c-8.661-19.487-1.245-24.837,18.242-29.167
		c19.487-4.33-39.895-1.146-44.225-16.575c-4.331-15.43,4.33-38.702,12.991-51.693c6.197-9.296,34.556-5.291,47.022-5.432
		c26.294,5.464,51.653,16.843,75.945,28.013c26.193,12.539,56.417,28.16,78.204,44.202c0.871,2.183,1.785,4.337,2.755,6.438
		c10.638,22.354,28.562,39.607,42.402,59.953c8.742,11.859,17.559,23.81,26.942,35.395c-17.367-3.754-37.154-5.519-52.777-8.093
		c-22.359-3.307-44.641-7.123-66.523-12.615c-21.876-5.7-43.35-13.485-65.715-17.612c-5.71-1.18-11.515-2.182-17.372-3.055
		C311.435,806.862,280.969,795.314,276.135,784.436z M289.126,838.567c2.749-9.623,21.207-15.739,39.307-17.826
		c7.376,0.203,14.757,0.736,22.139,1.662c22.529,2.419,43.916,9.724,65.815,15.366c22.048,5.344,44.305,9.641,66.548,13.842
		c21.133,4.497,44.756,7.545,64.09,16.459c2.737,3.084,5.438,6.192,8.323,9.17c16.802,17.993,38.314,30.277,58.315,44.589
		c0.409,0.286,0.833,0.551,1.243,0.834c-37.741-8.297-77.438-8.993-115.398-15.69c-39.377-5.797-78.989-9.164-118.712-11.505
		c-20.283-3.512-61.385-6.39-70.017-9.267C297.787,881.872,284.795,853.724,289.126,838.567z M907.066,1053.269
		c-49.495,4.266-98.641-2.188-147.006-12.604c-36.426-7.045-72.176-16.872-108.48-24.497
		c-68.617-12.662-141.361-20.902-212.062-29.159c-30.279-5.025-65.673-11.187-83.268-16.362
		c-36.81-10.827-28.149-25.983-28.149-43.305c0-15.718,32.058-18.964,54.179-24.282c15.066-0.385,30.172-0.292,45.2,0.128
		c48.066,1.182,95.661,9.114,143.223,15.429c19.876,3.095,40.221,6.128,58.684,13.315c15.822,9.342,32.753,16.998,50.032,22.801
		c23.127,7.864,46.698,14.355,70.905,18.364c24.179,4.121,48.657,4.377,72.11,8.336c35.062,6.287,68.584,22.317,97.244,43.531
		c13.451,11.055,28.117,21.378,43.926,29.213C945,1051.255,925.818,1052.658,907.066,1053.269z M1017.46,1072.065
		c-22.211-9.715-45.8-16.441-65.877-29.43c-20.06-13.166-37.565-31.088-59.303-42.108c-21.339-11.74-44.349-21.353-68.646-25.759
		c-23.985-4.353-48.208-4.903-72.036-9.25c-46.59-9.176-93.57-23.661-132.845-51.156c-19.197-13.933-40.318-25.965-56.702-43.624
		c-28.37-30.507-51.506-66.696-77.405-99.615c-13.3-19.228-26.809-58.044-10.882-78.303c15.631-11.923,38.345-12.989,57.469-15.557
		c15.362-1.033,30.648-6.566,44.943-10.336c23.074-6.483,46.482-11.56,70.353-13.403c44.685-4.087,87.703,10.11,127.021,30.991
		c69.106,56.214,125.815,107.566,158.652,134.565c49.712,40.875,90.939,99.194,119.428,146.545
		c-0.271,0.983-0.536,1.965-0.719,2.923c-3.743,19.56-1.208,44.481,2.973,67.086c1.957,10.576,5.937,32.276,9.676,54.742
		C1047.748,1085.959,1032.754,1077.962,1017.46,1072.065z M873.167,1546.6c-26.471,20.931-23.966,2.166-55.723,12.27
		c-31.756,10.105-31.756,21.653-45.414-12.27c-8.464-21.021,34.034-68.905,57.482-93.29l22.988-21.582
		c24.288-22.147,61.193-51.404,86.95-72.572c2.093-1.804,4.224-3.56,6.335-5.341c-10.193,39.525-20.299,81.285-32.664,120.152
		c-4.018,11.862-8.695,27.675-13.383,41.845C894.357,1525.046,885.901,1536.531,873.167,1546.6z M894.387,1393.559
		c-25.664,20.356-49.684,42.677-74.071,64.541c-44.47,31.127-112.16,50.096-133.127,48.804c-23.439-1.444-9.763-8.661-11.207-18.765
		c-1.443-10.104-37.53,2.887-59.183-10.104c-21.652-12.992,14.436-27.427,34.645-46.192c15.444-14.341,45.44-38.257,58.756-48.761
		c1.274-0.493,2.543-0.998,3.813-1.503c1.571-0.365,2.523-0.798,3.047-1.242c18.903-7.712,37.236-16.82,54.697-27.304
		c29.927-18.593,58.357-39.557,87.259-59.747c12.526-3.676,38.245-5.854,66.122-7.064c28.51-1.244,59.318-1.518,80.884-1.518
		c3.072,0,5.877,0.007,8.539,0.016c-10.012,12.858-21.943,27.523-30.981,36.651c-0.363,0.278-0.772,0.591-1.114,0.853
		C956.575,1342.589,920.506,1372.748,894.387,1393.559z M519.537,1382.08c-13.582-1.928,27.527-25.41,43.968-29.763
		c71.675-2.071,144.443-12.521,207.973-47.62c-12.151,20.54-22.74,42.014-35.136,62.358c-13.218,5.884-26.773,10.985-40.573,15.341
		c-2.085-0.07-4.32-0.169-6.808-0.316c-36.098-2.127-137.119,25.222-151.554,17.644
		C522.972,1392.146,534.52,1384.207,519.537,1382.08z M522.164,1335.128c-18.13-1.443,48.443-12.991,65.766-17.036
		c17.321-4.045-10.104-6.06-38.472-4.617c-28.367,1.443-20.712,0-16.975-14.733c3.286-12.958,42.549-25.221,40.616-29.321
		c16.456-7.023,33.316-13.052,50.38-17.907c76.512-20.343,156.191-24.26,233.814-39.139c-2.896,2.091-5.743,4.228-8.607,6.414
		c-21.205,17.079-41.976,35.24-58.247,57.231c-5.131,6.748-9.821,13.764-14.278,20.918l-0.103-0.157
		c-43.444,26.479-93.945,41.354-144.247,48.356c-18.435,2.311-40.216,3.795-62.625,4.947
		C564.664,1346.216,536.707,1336.286,522.164,1335.128z M874.324,1208.908c4.406-0.948,8.812-1.908,13.202-2.946
		c3.54-1.004,7.05-2.09,10.557-3.178c8.607,2.154,27.723,5.401,47.93-1.385c27.329-9.177,66.303-19.282,47.538-6.29
		c-15.852,10.974-38.775,34.389-45.534,41.419c-31.7,15.595-61.106,34.973-90.137,54.954c-0.103,0.031-0.222,0.06-0.323,0.092
		l0.034,0.108c-28.927,19.914-57.5,40.396-87.634,58.27c-9.81,5.696-19.889,10.875-30.177,15.582
		c13.392-21.215,24.923-43.626,38.527-64.637c0.113-0.067,0.23-0.124,0.343-0.191l-0.11-0.166
		c4.847-7.466,9.959-14.752,15.529-21.734c22.228-27.288,50.362-51.396,80.598-69.159L874.324,1208.908z M1034.165,1258.767
		c0,0-7.829,10.753-18.022,23.912c-3.088-0.012-6.44-0.021-10.123-0.021c-21.584,0-52.413,0.274-80.972,1.52
		c-24.539,1.077-47.318,2.849-61.304,5.827c27.702-19.224,55.927-37.591,86.41-52.323c14.061-3.155,58.583-12.744,48.323-5.25
		c-12.144,8.87-30.909,22.022-9.257,16.889c21.651-5.132,47.634-6.416,37.53,0
		C1016.646,1255.736,1034.165,1258.767,1034.165,1258.767z M874.674,1135.795c-9.457-1.052-18.418-2.227-26.125-3.524
		C856.737,1133.36,865.478,1134.541,874.674,1135.795z M461.693,1193.666c30.173-40.815,175.019-64.418,266.469-75.487
		c9.074,0.73,24.779,2.234,50.869,5.305c-1.055,0.05-1.677,0.094-1.677,0.094s44.421,14.429,80.508,19.884
		s79.392-2.598,59.184,7.924c-20.209,10.522-88.054,22.414-59.184,17.912c28.87-4.503,78.151-1.272,64.337,0
		c-13.815,1.271-54.232,18.672-35.466,14.302c14.013-3.264,52.248-6.423,60.048-3.958c-8.244,2.86-16.469,5.772-24.678,8.704
		c-16.511,6.454-33.178,11.399-50.185,15.395l-0.252-0.539c-0.624,0.337-1.19,0.703-1.799,1.047
		c-6.929,1.592-13.903,3.063-20.97,4.351c-72.129,14.513-154.377,23.719-226.101,40.371c-19.698,5.135-38.972,11.391-57.851,18.658
		c-22.716-2.759-85.53-10.787-105.693-14.782c-21.858-4.33-9.899-7.217-12.785-27.426c-1.242-8.695,5.624-20.289,13.838-30.687
		C461.178,1194.042,461.693,1193.666,461.693,1193.666z M932.202,1537.939c-6.229,6.795-13.509,12.989-21.385,18.862
		c1.607-16.18-0.875-40.62-2.243-52.016c4.258-15.38,8.417-31.08,12.437-45.04c2.466-10.063,8.885-35.846,11.486-46.305
		c5.062-20.588,10.431-41.084,15.894-61.564l-0.236-0.06c10.405-8.717,20.989-17.208,31.689-25.549
		c12.568-8.42,42.897-29.384,36.802-20.146c-8.661,13.129-47.635,62.208-30.313,49.217c17.322-12.991,40.418-43.305,34.644-21.652
		c-5.773,21.652-15.878,50.599-8.661,48.395c7.216-2.203-53.389,103.691-57.738,127.254
		C945.762,1521.586,937.917,1531.705,932.202,1537.939z M1961.999,528.938c18.878,15.156,42.696,25.983,16.713,45.47
		c-18.735,14.051-65.6,22.472-85.427,28.513c-12.115,2.58-24.177,5.229-36.228,8.221c-32.881,8.225-65.634,17.281-96.365,31.912
		c-14.294,7.082-28.177,15.302-39.065,27.284c-8.435-1.29-16.558-2.065-23.023-2.925c-14.947-1.06-28.534-5.776-43.467-9.545
		c-6.916-1.854-13.895-3.557-20.915-5.099c3.098-2.308,7.11-5.298,8.817-6.575c8.815-6.919,23.48-16.741,32.664-23.345
		c9.582-6.104,24.265-15.884,34.053-21.413c54.669-31.734,114.089-56.18,175.266-72.477
		C1912.859,524.105,1950.533,519.732,1961.999,528.938z M1920.251,444.493c0,0,47.635,4.331,41.14,32.479
		c-3.443,14.918-33.648,30.444-61.28,41.743c-21.414,6.472-42.431,13.671-63.282,21.498
		c-56.684,21.364-111.536,47.773-163.981,78.134c-5.576,3.491-20.387,12.792-25.673,16.278c-4.138,2.935-12.345,8.868-16.446,11.868
		c-1.198,0.882-4.636,3.363-5.947,4.326c-13.862-2.682-27.88-4.583-41.991-5.214c-39.32-2.573-77.003,8.438-111.594,26.081
		C1605.355,564.166,1780.837,444.493,1920.251,444.493z M1417.076,1258.781c12.874,12.609,23.51,26.872,33.198,41.834l-0.06,0.091
		c0.06,0.035,0.122,0.064,0.182,0.098c13.606,21.041,25.348,43.456,38.658,64.705c-31.592-14.677-61.038-33.876-89.27-54.366
		c-38.391-26.746-77.047-53.457-118.904-74.578c-6.714-6.985-29.69-30.462-45.567-41.455c-18.766-12.991,20.208-2.887,47.536,6.29
		c20.387,6.846,39.683,3.479,48.176,1.326c7.746,2.353,15.552,4.486,23.435,6.355l-0.264,0.565
		C1377.142,1222.339,1397.954,1240.782,1417.076,1258.781z M1709.327,1382.08c-14.984,2.127-3.435,10.066-17.87,17.644
		c-14.436,7.578-115.455-19.771-151.555-17.644c-2.362,0.139-4.514,0.238-6.511,0.309c-3.485-1.054-6.961-2.134-10.412-3.28
		c-10.39-3.472-20.514-7.552-30.446-12.038c-12.438-20.408-23.053-41.953-35.252-62.553c43.131,23.551,90.954,36.89,139.457,43.066
		c20.192,2.176,44.205,3.587,68.663,4.746C1681.869,1356.71,1722.896,1380.154,1709.327,1382.08z M1552.881,1488.139
		c-1.443,10.104,12.232,17.322-11.206,18.765c-20.968,1.291-88.659-17.678-133.129-48.805
		c-24.387-21.864-48.407-44.184-74.07-64.541c-25.996-20.715-62.329-51.084-88.078-71.335c-0.34-0.262-0.751-0.574-1.113-0.852
		c-9.04-9.128-20.969-23.794-30.982-36.653c2.662-0.009,5.466-0.016,8.537-0.016c21.564,0,52.372,0.274,80.882,1.518
		c27.876,1.21,53.596,3.388,66.126,7.063c28.903,20.191,57.336,41.156,87.262,59.747c17.46,10.485,35.793,19.593,54.694,27.305
		c0.525,0.445,1.477,0.878,3.05,1.243c1.269,0.506,2.538,1.01,3.812,1.503c13.314,10.504,43.311,34.42,58.755,48.761
		c20.208,18.765,56.296,33.2,34.643,46.192C1590.413,1491.026,1554.325,1478.035,1552.881,1488.139z M1456.834,1546.6
		c-13.658,33.922-13.658,22.375-45.416,12.27c-31.756-10.104-29.251,8.661-55.722-12.27c-12.822-10.138-21.31-21.715-26.688-30.98
		c-1.233-3.757-2.424-7.544-3.555-11.388c-16.449-48.587-29.844-100.66-42.372-150.373c31.611,25.625,64.28,52.219,93.282,77.87
		c7.691,7.335,15.656,14.805,23.706,22.335C1423.655,1478.664,1465.214,1525.788,1456.834,1546.6z M1202.113,1249.321
		c-10.104-6.416,15.878-5.132,37.53,0c21.653,5.132,2.887-8.02-9.257-16.889c-10.26-7.493,34.26,2.095,48.321,5.25
		c30.482,14.731,58.708,33.099,86.412,52.324c-13.99-2.979-36.769-4.751-61.307-5.828c-28.561-1.247-59.389-1.52-80.972-1.52
		c-3.682,0-7.034,0.009-10.12,0.021c-10.193-13.159-18.021-23.912-18.021-23.912S1212.217,1255.736,1202.113,1249.321z
		 M1696.381,1298.743c3.736,14.733,11.391,16.176-16.975,14.733c-28.368-1.444-55.794,0.572-38.472,4.617
		c17.323,4.044,83.896,15.593,65.766,17.036c-14.545,1.158-42.512,11.091-47.026,14.96c-22.461-1.157-44.28-2.644-62.621-4.95
		c-50.304-7.003-100.802-21.875-144.247-48.356l-0.104,0.157c-4.457-7.155-9.147-14.171-14.278-20.919
		c-18.716-24.055-41.666-45.807-66.932-63.4c2.488,0.439,4.978,0.871,7.487,1.24c75.316,13.395,152.312,18.147,226.406,37.656
		c17.065,4.856,33.924,10.884,50.38,17.907C1653.832,1273.522,1693.095,1285.786,1696.381,1298.743z M1296.661,1537.939
		c-5.715-6.235-13.559-16.353-22.376-28.605c-4.349-23.563-64.954-129.457-57.738-127.254c7.217,2.204-2.887-26.743-8.662-48.395
		c-5.773-21.653,17.323,8.661,34.645,21.652s-21.653-36.087-30.313-49.217c-6.184-9.375,25.153,12.362,37.36,20.52
		c10.099,8.242,20.476,16.656,31.021,25.203l-0.127,0.032c9.397,34.842,18.708,72.74,27.379,107.87
		c4.013,13.937,8.177,29.653,12.438,45.043c-1.369,11.397-3.848,35.836-2.242,52.013
		C1310.171,1550.929,1302.89,1544.734,1296.661,1537.939z M1480.24,1120.097c9.057-0.935,15.668-1.531,20.466-1.917
		c91.449,11.069,236.293,34.672,266.464,75.486c0,0,0.514,0.375,1.386,1.069c8.215,10.398,15.081,21.993,13.839,30.688
		c-2.887,20.209,9.073,23.096-12.786,27.426c-20.163,3.995-82.976,12.023-105.692,14.782c-18.879-7.266-38.152-13.522-57.851-18.658
		c-79.664-18.579-167.213-26.881-247.611-44.957c-0.424-0.263-0.834-0.552-1.26-0.813l-0.217,0.467
		c-4.754-1.077-9.49-2.175-14.189-3.326c-20.466-6.042-40.603-13.486-60.834-20.667c7.537-2.532,46.092,0.645,60.174,3.924
		c18.766,4.37-21.652-13.031-35.466-14.302c-13.814-1.272,35.466-4.503,64.336,0c28.87,4.502-38.974-7.39-59.183-17.912
		c-20.209-10.522,23.096-2.469,59.183-7.924c36.087-5.455,80.508-19.884,80.508-19.884s-0.009,0-0.01,0
		c-25.864,3.56-52.815,7.005-79.708,10.009c-5.518,0.786-11.444,1.523-17.585,2.206
		C1418.189,1127.063,1457.117,1122.484,1480.24,1120.097z M1252.657,1142.971c-12.958,0.435-25.349,0.576-37.02,0.378
		C1227.988,1143.333,1240.487,1143.206,1252.657,1142.971z M1211.404,1072.065c-14.094,5.431-27.942,12.648-42.41,17.206
		c2.42-33.553,8.769-79.076,0.678-103.426c-0.524-1.577-1.071-3.099-1.616-4.621c28.436-49.531,73.273-116.65,128.605-162.145
		c32.836-26.998,89.543-78.348,158.647-134.56c39.318-20.882,82.333-35.081,127.025-30.996c23.871,1.843,47.28,6.921,70.354,13.403
		c14.297,3.776,29.57,9.31,44.942,10.334c19.123,2.577,41.83,3.635,57.471,15.558c15.879,20.372,2.508,58.884-10.883,78.303
		c-25.902,32.918-49.034,69.106-77.406,99.613c-16.383,17.661-37.504,29.691-56.7,43.625
		c-39.276,27.492-86.256,41.982-132.845,51.155c-23.828,4.349-48.054,4.899-72.036,9.251c-24.296,4.406-47.307,14.019-68.646,25.76
		c-21.742,11.022-39.241,28.94-59.304,42.107C1257.204,1055.623,1233.615,1062.349,1211.404,1072.065z M1872.615,970.647
		c-17.398,5.117-52.204,11.2-82.254,16.194l-29.43,3.46c-73.492,9.459-147.785,16.218-219.829,34.133
		c-48.015,11.391-96.289,22.617-145.367,28.239c-36.886,4.714-74.001-0.964-111.052-0.129c-6.443,0.178-12.929,0.631-19.349,1.594
		c15.781-7.83,30.431-18.144,43.853-29.174c28.664-21.219,62.176-37.241,97.243-43.531c23.453-3.959,47.932-4.216,72.11-8.336
		c24.208-4.009,47.779-10.5,70.906-18.364c17.277-5.803,34.208-13.459,50.03-22.801c18.465-7.187,38.808-10.22,58.685-13.315
		c23.762-3.541,47.664-6.279,71.482-9.622c38.744-5.066,78.003-7.04,117.088-5.9c22.115,5.298,54.03,8.563,54.03,24.247
		C1900.763,944.663,1909.424,959.82,1872.615,970.647z M1918.086,886.202c-8.671,2.89-50.106,5.781-70.288,9.316
		c-15.561,0.908-31.098,1.919-46.668,3.285c-48.038,3.755-95.402,12.235-143.316,17.189c-14.549,1.793-29.127,3.443-43.454,6.402
		c0.277-0.192,0.566-0.371,0.842-0.564c20.001-14.315,41.51-26.595,58.314-44.589c2.886-2.978,5.587-6.087,8.325-9.171
		c19.324-8.911,42.956-11.96,64.087-16.457c22.243-4.201,44.499-8.498,66.547-13.841c28.9-8.708,58.229-15.88,87.962-17.029
		c18.099,2.087,36.551,8.203,39.3,17.825C1944.069,853.724,1931.077,881.872,1918.086,886.202z M1978.712,738.694
		c-4.33,15.429-63.711,12.245-44.225,16.575c19.487,4.33,26.904,9.68,18.242,29.167c-4.858,10.93-35.596,22.54-58.219,29.865
		c-16.999,2.576-33.82,6.227-50.226,11.075c-42.409,14.348-88.389,20.825-132.71,26.888c-6.379,0.969-12.697,1.928-19.098,3.275
		c9.372-11.576,18.18-23.516,26.917-35.365c13.837-20.347,31.762-37.598,42.401-59.953c0.969-2.1,1.882-4.254,2.753-6.435
		c21.765-16.03,52.04-31.68,78.206-44.204c24.296-11.172,49.651-22.549,75.948-28.013c12.468,0.141,40.823-3.863,47.02,5.432
		C1974.382,699.992,1983.042,723.264,1978.712,738.694z M1980.877,628.539c-4.132,20.657-53.559,39.336-65.619,48.53
		c-10.055,3.894-19.814,7.988-29.709,12.066c-39.61,16.996-79.86,34.383-117.689,55.326c5.004-16.25,6.475-33.854,0.491-49.958
		c-5.805-13.51-22.229-19.53-38.999-22.813c31.594-37.788,104.497-55.489,157.31-62.222
		C1902.584,615.156,1985.108,607.386,1980.877,628.539z"/>
	<g>
		<path style="fill:#1E0C09;" d="M2052.329,379.536c-34.643-34.644-212.192-10.898-363.759,75.784
			c-114.345,65.394-400.546,322.62-472.022,420.057c-16.529,22.532-36.906,55.272-54.943,89.877
			c-9.742-21.602-19.776-34.53-19.776-34.53s22.454-14.225,14.969-42.676c-3.799-14.443-7.145-28.46-16.099-37.594
			c2.981-4.453,5.438-8.395,5.438-8.395c92.243-187.604,153.532-293.246,166.306-288.531c12.773,4.714,31.807,5.315,44.766-12.147
			c12.96-17.461,9.738-34.727-1.385-37.44c-12.768-3.113-35.486,18.008-35.486,18.008
			c-49.333,43.068-143.391,233.474-180.658,315.711c-1.497,3.304-2.782,6.209-3.884,8.774c-8.84-5.98-21.924-8.352-42.614-4.619
			c0,0-5.213,3.471-11.355,9.202c-1.434-3.508-3.322-7.876-5.807-13.356c-37.267-82.237-131.324-272.643-180.657-315.711
			c0,0-22.72-21.121-35.486-18.008c-11.125,2.712-14.344,19.978-1.386,37.44c12.959,17.461,31.994,16.861,44.766,12.147
			c12.773-4.715,74.063,100.928,166.307,288.531c0,0,4.302,6.9,8.428,12.756c-9.367,9.749-18.87,23.876-14.749,38.568
			c7.485,26.673,14.474,30.229,14.474,30.229s-10.891,11.986-18.918,25.831c-15.748-28.625-32.494-54.999-46.48-74.065
			C940.84,777.94,654.639,520.714,540.294,455.32c-151.566-86.681-329.116-110.427-363.76-75.784c0,0-51.965,73.618,7.376,292.737
			c15.98,59.002,51.102,127.312,77.069,209.598c30.185,95.654,60.291,149.735,94.997,179.364
			c34.328,29.305,95.492,36.523,170.057,40.726c-70.123-13.692-121.071-39.795-143.801-55.531
			c-28.148-19.487-21.652-32.479-17.322-45.47c2.415-7.243,35.788-7.754,67.851-6.79c60.758,4.483,121.472,10.253,181.809,18.6
			c73.472,10.117,144.467,33.503,218.425,41.146c36.956,4.766,74.096-0.905,111.122,0.434c9.149,0.343,18.351,1.214,27.176,3.374
			c3.645,1.572,7.327,3.053,11.089,4.317c22.881,8.136,45.078,17.471,67.824,25.99c4.45,1.64,9.022,3.097,13.669,4.247
			c3.02,18.248,5.833,36.781,7.242,50.13c0.517,4.909,0.853,9.138,0.929,12.364c0.209,8.731,0.981,14.587,1.59,19.947
			c-12.244,10.847-28.487,17.98-43.278,25.046c-26.822,12.522-54.561,22.903-81.069,36.119c-0.428,0.209-0.844,0.435-1.272,0.645
			c-31.7,15.595-61.106,34.973-90.137,54.954c-0.103,0.031-0.222,0.06-0.323,0.092l0.034,0.108
			c-28.927,19.914-57.5,40.396-87.634,58.27c-9.81,5.696-19.889,10.875-30.177,15.582c13.392-21.215,24.923-43.626,38.527-64.637
			c0.113-0.067,0.23-0.124,0.343-0.191l-0.11-0.166c4.847-7.466,9.959-14.752,15.529-21.734
			c22.228-27.288,50.362-51.396,80.598-69.159l-0.344-0.739c4.406-0.948,8.812-1.908,13.202-2.946
			c3.54-1.004,7.05-2.09,10.557-3.178c33.152-10.279,64.996-23.908,98.223-33.976c23.853-6.777,48.785-17.049,73.724-15.779
			l0.48-1.988c-13.033-2.389-25.804,0.975-38.497,3.289c-28.949,6.55-57.221,15.596-85.231,25.313
			c-8.244,2.86-16.469,5.772-24.678,8.704c-16.511,6.454-33.178,11.399-50.185,15.395l-0.252-0.539
			c-0.624,0.337-1.19,0.703-1.799,1.047c-6.929,1.592-13.903,3.063-20.97,4.351c-72.129,14.513-154.377,23.719-226.101,40.371
			c-19.698,5.135-38.972,11.391-57.851,18.658c-24.991,9.618-49.251,21.106-72.798,34.345c-9.611-2.654-24.99-2.855-32.894-6.544
			c-13.918-6.496-31.55-19.487-29.509-49.8c1.778-26.399,24.673-46.214,30.562-50.896c0.873-0.694,1.388-1.07,1.388-1.07
			c30.173-40.815,175.019-64.418,266.469-75.487c9.074,0.73,24.779,2.234,50.869,5.305c17.885,2.106,40.615,4.943,69.518,8.787
			c8.187,1.089,16.929,2.269,26.125,3.524c6.162,0.841,12.494,1.709,19.13,2.629c23.874,3.306,74.559,4.928,122.153,4.931
			c19.075,0,37.647-0.263,53.783-0.784l-0.005-0.157l-0.059-1.887c-16.11,0.52-34.663,0.782-53.719,0.782
			c-47.526,0.002-98.241-1.633-121.873-4.911c-27.226-3.774-50.334-6.858-70.015-9.395c-9.535-1.229-18.237-2.325-26.204-3.307
			c-28.548-3.517-47.473-5.539-59.769-6.695c39.109-4.547,66.257-6.615,66.269-6.616c-31.028,0.844-61.828,2.229-91.697,4.23
			c-127.022,8.51-237.199,28.087-276.307,63.893c-43.147,39.506-64.956,112.592,75.784,277.151
			c54.306,63.496,175.384,142.906,205.698,162.393c30.313,19.487,66.356,57.315,154.762,22.671
			c60.545-23.726,144.302-178.925,193.868-297.348c1.826,13.779,5.163,26.583,11.737,37.222
			c15.52,25.119,13.097,37.342,14.969,62.236c1.871,24.894,1.694,36.829-7.245,59.945c-8.94,23.116-2.111,66.304,16.6,76.974
			c18.711,10.669,43.036,21.338,54.263,0c11.227-21.338,0-60.458,0-92.465c0-32.007-3.742-69.349-3.742-92.465
			c0,0,15.637-6.943,15.956-28.45c0.036-2.399,0.112-4.698,0.201-6.966c50.16,115.958,129.198,258.648,187.045,281.317
			c88.407,34.644,124.449-3.184,154.763-22.671c30.313-19.487,151.391-98.897,205.698-162.393
			c140.74-164.558,118.93-237.645,75.782-277.151c-39.108-35.807-149.286-55.384-276.306-63.893
			c-2.664,0.322-5.326,0.638-7.996,0.983c-11.25,0.646-51.753,3.939-173.421,20.8c-23.632,3.278-74.348,4.913-121.876,4.911
			c-14.411,0-28.525-0.151-41.517-0.449c-0.364-6.616-1.164-13.057-2.373-19.875c-1.254-7.074-0.991-17.576-0.159-29.745
			c3.318-0.949,6.595-2.027,9.806-3.209c22.745-8.52,44.941-17.855,67.824-25.992c3.654-1.227,7.234-2.659,10.779-4.178
			c20.849-5.181,43.108-3.656,64.476-3.177c24.64,1.041,49.515,2.342,74.132-0.769c73.957-7.641,144.954-31.028,218.425-41.144
			c60.338-8.348,121.052-14.119,181.812-18.601c32.063-0.964,65.433-0.453,67.848,6.79c4.33,12.991,10.826,25.982-17.322,45.47
			c-22.73,15.737-73.678,41.84-143.801,55.531c74.565-4.203,135.729-11.421,170.057-40.726
			c34.707-29.629,64.812-83.709,94.997-179.364c25.967-82.286,61.089-150.596,77.069-209.598
			C2104.295,453.154,2052.329,379.536,2052.329,379.536z M758.608,672.44c-1.969-1.02-3.901-2.107-5.887-3.096
			c-32.567-16.695-69.702-25.991-106.648-23.739c-14.113,0.631-28.13,2.532-41.991,5.215c-1.257-0.929-4.954-3.576-5.946-4.327
			c-4.057-2.979-12.352-8.953-16.448-11.868c-5.347-3.53-20.083-12.775-25.672-16.278c-71.456-41.342-147.102-75.127-226.119-99.17
			c-27.938-11.337-58.932-27.081-62.423-42.206c-6.495-28.148,41.139-32.479,41.139-32.479
			C448.353,444.493,624.334,564.726,758.608,672.44z M250.152,574.408c-25.983-19.487-2.165-30.314,16.713-45.47
			c11.627-9.335,50.214-4.707,78.152,0.226c41.351,11.099,81.747,26.405,120.583,44.268c42.488,19.191,82.912,44.868,120.225,72.761
			c1.785,1.329,5.745,4.286,8.814,6.576c-7.019,1.542-13.996,3.245-20.913,5.098c-14.93,3.764-28.533,8.476-43.467,9.544
			c-6.462,0.867-14.619,1.643-23.096,2.941c-35.966-37.864-115.415-54.937-170.195-66.992
			C318.053,597.289,269.348,588.805,250.152,574.408z M342.524,609.342c1.241,0.151,2.486,0.291,3.725,0.441
			c47.518,7.439,120.521,22.829,153.175,61.927c-16.736,3.281-33.131,9.297-38.91,22.794c-5.941,16.005-4.531,33.484,0.398,49.649
			c-10.096-5.581-22.414-11.531-31.116-15.99c-38.15-18.247-76.127-35.429-115.557-50.604
			c-10.885-9.011-62.046-27.994-66.251-49.021C243.725,607.234,327.458,615.266,342.524,609.342z M276.135,784.436
			c-8.661-19.487-1.245-24.837,18.242-29.167c19.487-4.33-39.895-1.146-44.225-16.575c-4.331-15.43,4.33-38.702,12.991-51.693
			c6.197-9.296,34.556-5.291,47.022-5.432c26.294,5.464,51.653,16.843,75.945,28.013c26.193,12.539,56.417,28.16,78.204,44.202
			c0.871,2.183,1.785,4.337,2.755,6.438c10.638,22.354,28.562,39.607,42.402,59.953c8.742,11.859,17.559,23.81,26.942,35.395
			c-17.367-3.754-37.154-5.519-52.777-8.093c-22.359-3.307-44.641-7.123-66.523-12.615c-21.876-5.7-43.35-13.485-65.715-17.612
			c-5.71-1.18-11.515-2.182-17.372-3.055C311.435,806.862,280.969,795.314,276.135,784.436z M289.126,838.567
			c2.749-9.623,21.207-15.739,39.307-17.826c7.376,0.203,14.757,0.736,22.139,1.662c22.529,2.419,43.916,9.724,65.815,15.366
			c22.048,5.344,44.305,9.641,66.548,13.842c21.133,4.497,44.756,7.545,64.09,16.459c2.737,3.084,5.438,6.192,8.323,9.17
			c16.802,17.993,38.314,30.277,58.315,44.589c0.409,0.286,0.833,0.551,1.243,0.834c-37.741-8.297-77.438-8.993-115.398-15.69
			c-39.377-5.797-78.989-9.164-118.712-11.505c-20.283-3.512-61.385-6.39-70.017-9.267
			C297.787,881.872,284.795,853.724,289.126,838.567z M907.066,1053.269c-49.495,4.266-98.641-2.188-147.006-12.604
			c-36.426-7.045-72.176-16.872-108.48-24.497c-68.617-12.662-141.361-20.902-212.062-29.159
			c-30.279-5.025-65.673-11.187-83.268-16.362c-36.81-10.827-28.149-25.983-28.149-43.305c0-15.718,32.058-18.964,54.179-24.282
			c15.066-0.385,30.172-0.292,45.2,0.128c48.066,1.182,95.661,9.114,143.223,15.429c19.876,3.095,40.221,6.128,58.684,13.315
			c15.822,9.342,32.753,16.998,50.032,22.801c23.127,7.864,46.698,14.355,70.905,18.364c24.179,4.121,48.657,4.377,72.11,8.336
			c35.062,6.287,68.584,22.317,97.244,43.531c13.451,11.055,28.117,21.378,43.926,29.213
			C945,1051.255,925.818,1052.658,907.066,1053.269z M1017.46,1072.065c-22.211-9.715-45.8-16.441-65.877-29.43
			c-20.06-13.166-37.565-31.088-59.303-42.108c-21.339-11.74-44.349-21.353-68.646-25.759c-23.985-4.353-48.208-4.903-72.036-9.25
			c-46.59-9.176-93.57-23.661-132.845-51.156c-19.197-13.933-40.318-25.965-56.702-43.624
			c-28.37-30.507-51.506-66.696-77.405-99.615c-13.3-19.228-26.809-58.044-10.882-78.303c15.631-11.923,38.345-12.989,57.469-15.557
			c15.362-1.033,30.648-6.566,44.943-10.336c23.074-6.483,46.482-11.56,70.353-13.403c44.685-4.087,87.703,10.11,127.021,30.991
			c69.106,56.214,125.815,107.566,158.652,134.565c49.712,40.875,90.939,99.194,119.428,146.545
			c-0.271,0.983-0.536,1.965-0.719,2.923c-3.743,19.56-1.208,44.481,2.973,67.086c1.957,10.576,5.937,32.276,9.676,54.742
			C1047.748,1085.959,1032.754,1077.962,1017.46,1072.065z M498.225,1314.919c1.475-2.118,2.206-3.908,2.343-5.438
			c22.546-15.748,47.014-29.168,72.531-40.059c16.456-7.023,33.316-13.052,50.38-17.907c76.512-20.343,156.191-24.26,233.814-39.139
			c-2.896,2.091-5.743,4.228-8.607,6.414c-21.205,17.079-41.976,35.24-58.247,57.231c-5.131,6.748-9.821,13.764-14.278,20.918
			l-0.103-0.157c-43.444,26.479-93.945,41.354-144.247,48.356c-18.435,2.311-40.216,3.795-62.625,4.947
			c-26.547,1.366-53.937,2.268-77.789,3.494C489.869,1339.419,491.226,1324.971,498.225,1314.919z M498.225,1382.08
			c-2.902-7.601-5.359-16.875-6.579-26.384l63.554-3.147c2.765-0.056,5.535-0.151,8.305-0.232
			c71.675-2.071,144.443-12.521,207.973-47.62c-12.151,20.54-22.74,42.014-35.136,62.358c-13.218,5.884-26.773,10.985-40.573,15.341
			c-2.212,0.698-4.419,1.411-6.643,2.071c-28.709,7.739-57.749,14.3-85.19,26.248c-5.629,2.127-11.405,5.3-16.947,8.395
			c-10.619,1.344-31.496,8.402-54.506,8.402C494.357,1427.512,505.651,1401.529,498.225,1382.08z M700.522,1550.93
			c-21.653,10.827-36.81-6.496-59.599-19.487c-22.79-12.991-59.49-43.305-66.12-60.627c-6.498-16.98,6.11-23.588,16.808-42.198
			c0.425-0.262,0.832-0.524,1.295-0.783c29.838-18.252,64.693-27.528,97.937-37.805c6.509-2.145,12.96-4.475,19.355-6.949
			c1.274-0.493,2.543-0.998,3.813-1.503c1.019-0.406,2.032-0.828,3.047-1.242c18.903-7.712,37.236-16.82,54.697-27.304
			c29.927-18.593,58.357-39.557,87.259-59.747c12.526-3.676,38.245-5.854,66.122-7.064c28.51-1.244,59.318-1.518,80.884-1.518
			c3.072,0,5.877,0.007,8.539,0.016c7.876,0.027,13.811,0.083,16.964,0.12c-16.331,12.745-37.021,28.155-47.945,36.532
			c-0.363,0.278-0.772,0.591-1.114,0.853c-25.89,20.366-61.959,50.525-88.078,71.336c-25.664,20.356-49.684,42.677-74.071,64.541
			c-3.752,3.363-7.487,6.746-11.264,10.077c-26.722,23.866-53.659,46.221-80.331,70.29
			C721.683,1540.623,711.375,1545.503,700.522,1550.93z M862.69,1585.639c-0.524,1.103-0.976,2.256-1.336,3.468
			c-7.685,4.963-15.209,10.06-22.257,15.49c-30.313,23.353-41.14,17.787-65.283,22.118c-24.145,4.33-38.649-28.148-49.474-47.636
			c-10.204-18.367,6.509-25.196,12.092-34.985c23.554-25.633,49.612-49.502,74.755-73.577l18.326-17.207l22.988-21.582
			c24.288-22.147,61.193-51.404,86.95-72.572c2.093-1.804,4.224-3.56,6.335-5.341c-10.193,39.525-20.299,81.285-32.664,120.152
			c-4.018,11.862-8.695,27.675-13.383,41.845c-2.192,6.629-4.388,12.932-6.52,18.242
			C885.545,1552.569,872.788,1568.335,862.69,1585.639z M1031.803,1382.08c-11.52,28.006-49.296,88.443-77.225,127.254
			c-8.816,12.252-16.661,22.37-22.376,28.605c-6.229,6.795-13.509,12.989-21.385,18.862c-9.151,6.824-19.112,13.211-29.244,19.557
			c5.97-13.225,13.18-26.046,17.752-39.907c3.126-9.882,6.212-20.695,9.249-31.666c4.258-15.38,8.417-31.08,12.437-45.04
			c2.466-10.063,8.885-35.846,11.486-46.305c5.062-20.588,10.431-41.084,15.894-61.564l-0.236-0.06
			c10.405-8.717,20.989-17.208,31.689-25.549c17.858-13.921,35.968-27.521,53.861-41.402c0.247,0.004,0.441,0.006,0.443,0.006
			l0.005-0.353c5.552-4.31,11.09-8.64,16.582-13.026l12.427-10.102c-0.382,6.872-0.408,14.424,0.077,23.188
			c0.662,11.939,0.795,24.29,1.366,36.385C1051.79,1342.997,1038.8,1365.072,1031.803,1382.08z M1072.045,1207.819
			c-3.578,19.065-7.42,32.675-8.71,50.936l-13.756,11.423c-3.747,3.297-9.222,7.726-15.485,12.648
			c-0.357-0.005-7.151-0.102-17.95-0.146c-3.088-0.012-6.44-0.021-10.123-0.021c-21.584,0-52.413,0.274-80.972,1.52
			c-24.539,1.077-47.318,2.849-61.304,5.827c27.702-19.224,55.927-37.591,86.41-52.323c0.008-0.004,0.016-0.008,0.025-0.012
			c26.385-13.199,54.085-23.713,82.269-32.525c14.093-4.766,28.018-8.315,41.803-13.657
			C1073.968,1195.902,1073.303,1201.118,1072.045,1207.819z M1961.999,528.938c18.878,15.156,42.696,25.983,16.713,45.47
			c-18.735,14.051-65.6,22.472-85.427,28.513c-12.115,2.58-24.177,5.229-36.228,8.221c-32.881,8.225-65.634,17.281-96.365,31.912
			c-14.294,7.082-28.177,15.302-39.065,27.284c-8.435-1.29-16.558-2.065-23.023-2.925c-14.947-1.06-28.534-5.776-43.467-9.545
			c-6.916-1.854-13.895-3.557-20.915-5.099c3.098-2.308,7.11-5.298,8.817-6.575c8.815-6.919,23.48-16.741,32.664-23.345
			c9.582-6.104,24.265-15.884,34.053-21.413c54.669-31.734,114.089-56.18,175.266-72.477
			C1912.859,524.105,1950.533,519.732,1961.999,528.938z M1920.251,444.493c0,0,47.635,4.331,41.14,32.479
			c-3.443,14.918-33.648,30.444-61.28,41.743c-21.414,6.472-42.431,13.671-63.282,21.498
			c-56.684,21.364-111.536,47.773-163.981,78.134c-5.576,3.491-20.387,12.792-25.673,16.278
			c-4.138,2.935-12.345,8.868-16.446,11.868c-1.198,0.882-4.636,3.363-5.947,4.326c-13.862-2.682-27.88-4.583-41.991-5.214
			c-39.32-2.573-77.003,8.438-111.594,26.081C1605.355,564.166,1780.837,444.493,1920.251,444.493z M1318.047,1556.802
			c-7.877-5.873-15.157-12.067-21.386-18.862c-5.715-6.235-13.559-16.353-22.376-28.605
			c-27.929-38.811-65.704-99.248-77.224-127.254c-5.708-13.874-15.405-31.12-25.743-48.966c2.703-23.612,5.886-39.203-1.646-55.65
			c-5.716-12.48-10.255-15.024-11.67-22.333l20.125,16.361c5.432,4.517,10.978,8.918,16.585,13.253l0.002,0.126
			c0.002,0,0.126-0.002,0.16-0.002c16.783,12.967,34.123,25.349,50.653,38.473c1.328,1.087,2.71,2.205,4.049,3.299
			c10.099,8.242,20.476,16.656,31.021,25.203l-0.127,0.032c9.397,34.842,18.708,72.74,27.379,107.87
			c4.013,13.937,8.177,29.653,12.438,45.043c3.039,10.979,6.126,21.795,9.248,31.663c4.822,13.752,11.526,26.682,17.616,39.822
			C1337.069,1569.955,1327.156,1563.595,1318.047,1556.802z M1504.524,1579.079c-10.827,19.487-25.33,51.966-49.474,47.636
			c-24.144-4.331-34.97,1.235-65.283-22.118c-7.024-5.411-14.521-10.491-22.178-15.437c-0.099-0.39-0.202-0.742-0.313-0.986
			c-4.306-9.644-11.238-17.787-16.578-26.704c-9.864-14.262-16.366-29.641-21.689-45.85c-1.233-3.757-2.424-7.544-3.555-11.388
			c-16.449-48.587-29.844-100.66-42.372-150.373c31.611,25.625,64.28,52.219,93.282,77.87c7.691,7.335,15.656,14.805,23.706,22.335
			c31.304,29.283,64.305,59.826,92.509,90.291C1498.304,1554.005,1514.639,1560.874,1504.524,1579.079z M1654.06,1470.817
			c-6.629,17.322-43.33,47.635-66.12,60.627c-22.789,12.991-37.945,30.313-59.599,19.487c-10.855-5.426-21.161-10.307-28.198-12.464
			c-26.677-24.071-53.609-46.423-80.332-70.29c-3.778-3.331-7.513-6.714-11.265-10.078c-24.387-21.864-48.407-44.184-74.07-64.541
			c-25.996-20.715-62.329-51.084-88.078-71.335c-0.34-0.262-0.751-0.574-1.113-0.852c-10.889-8.35-31.634-23.804-47.947-36.533
			c3.155-0.037,9.089-0.093,16.965-0.12c2.662-0.009,5.466-0.016,8.537-0.016c21.564,0,52.372,0.274,80.882,1.518
			c27.876,1.21,53.596,3.388,66.126,7.063c28.903,20.191,57.336,41.156,87.262,59.747c17.46,10.485,35.793,19.593,54.694,27.305
			c1.016,0.415,2.031,0.837,3.05,1.243c1.269,0.506,2.538,1.01,3.812,1.503c6.394,2.474,12.845,4.804,19.354,6.949
			c33.247,10.28,68.104,19.555,97.937,37.806c0.464,0.259,0.869,0.521,1.295,0.783
			C1647.951,1447.229,1660.559,1453.837,1654.06,1470.817z M1730.639,1382.08c-7.426,19.448,3.868,45.431-34.257,45.431
			c-22.663,0-43.249-6.841-54.012-8.333c-0.348-0.185-0.705-0.382-1.031-0.538c-33.709-18.484-71.581-25.248-107.948-36.252
			c-3.485-1.054-6.961-2.134-10.412-3.28c-10.39-3.472-20.514-7.552-30.446-12.038c-12.438-20.408-23.053-41.953-35.252-62.553
			c43.131,23.551,90.954,36.89,139.457,43.066c20.192,2.176,44.205,3.587,68.663,4.746c24.652,1.168,49.715,2.086,71.83,3.264
			C1736.015,1365.139,1733.551,1374.452,1730.639,1382.08z M1737.467,1353.582c-23.758-1.218-51.205-2.125-77.793-3.494
			c-22.461-1.157-44.28-2.644-62.621-4.95c-50.304-7.003-100.802-21.875-144.247-48.356l-0.104,0.157
			c-4.457-7.155-9.147-14.171-14.278-20.919c-18.716-24.055-41.666-45.807-66.932-63.4c2.488,0.439,4.978,0.871,7.487,1.24
			c75.316,13.395,152.312,18.147,226.406,37.656c17.065,4.856,33.924,10.884,50.38,17.907c25.517,10.891,49.983,24.311,72.532,40.06
			c0.137,1.53,0.866,3.32,2.341,5.437C1737.639,1324.971,1738.995,1339.421,1737.467,1353.582z M1212.901,1143.355
			c0.91,0,1.825-0.005,2.736-0.006c12.35-0.016,24.85-0.143,37.02-0.378c33.934-0.655,65.163-2.16,82.4-4.546
			c6.651-0.922,12.975-1.789,19.15-2.631c63.981-8.73,102.91-13.31,126.033-15.696c9.057-0.935,15.668-1.531,20.466-1.917
			c91.449,11.069,236.293,34.672,266.464,75.486c0,0,0.514,0.375,1.386,1.069c5.887,4.681,28.784,24.497,30.563,50.897
			c2.042,30.313-15.59,43.304-29.51,49.8c-7.903,3.689-23.282,3.89-32.893,6.544c-23.55-13.24-47.81-24.727-72.798-34.346
			c-18.879-7.266-38.152-13.522-57.851-18.658c-79.664-18.579-167.213-26.881-247.611-44.957c-0.424-0.263-0.834-0.552-1.26-0.813
			l-0.217,0.467c-4.754-1.077-9.49-2.175-14.189-3.326c-20.466-6.042-40.603-13.486-60.834-20.667
			c-15.855-5.628-31.767-11.098-47.95-15.579c-20.385-5.204-41.207-12.785-62.403-13.535c0.026-2.607-0.031-5.144-0.134-7.654
			C1184.442,1143.205,1198.526,1143.355,1212.901,1143.355z M1171.536,1153.402c20.673,1.841,41.213,9.779,61.022,15.408
			c33.142,10.173,65.297,23.841,98.467,33.916c7.746,2.353,15.552,4.486,23.435,6.355l-0.264,0.565
			c22.946,12.693,43.758,31.136,62.88,49.135c12.874,12.609,23.51,26.872,33.198,41.834l-0.06,0.091
			c0.06,0.035,0.122,0.064,0.182,0.098c13.606,21.041,25.348,43.456,38.658,64.705c-31.592-14.677-61.038-33.876-89.27-54.366
			c-38.391-26.746-77.047-53.457-118.904-74.578c-0.439-0.221-0.865-0.462-1.305-0.681c-26.508-13.216-54.249-23.596-81.069-36.118
			c-9.918-4.739-20.49-9.511-30.087-15.403C1170.284,1172.393,1171.29,1162.465,1171.536,1153.402z M1196.417,1205.144
			c28.183,8.813,55.884,19.326,82.269,32.526c0.007,0.004,0.015,0.008,0.022,0.011c30.482,14.731,58.708,33.099,86.412,52.324
			c-13.99-2.979-36.769-4.751-61.307-5.828c-28.561-1.247-59.389-1.52-80.972-1.52c-3.682,0-7.034,0.009-10.12,0.021
			c-10.797,0.044-17.59,0.141-17.951,0.146c-6.295-4.946-11.781-9.383-15.484-12.648l-21.655-17.981
			c-0.451-6.348,0.885-16.182,4.782-35.253c1.586-7.756,2.93-14.742,4.09-21.222
			C1176.396,1198.966,1186.36,1201.744,1196.417,1205.144z M1211.404,1072.065c-14.094,5.431-27.942,12.648-42.41,17.206
			c2.42-33.553,8.769-79.076,0.678-103.426c-0.524-1.577-1.071-3.099-1.616-4.621c28.436-49.531,73.273-116.65,128.605-162.145
			c32.836-26.998,89.543-78.348,158.647-134.56c39.318-20.882,82.333-35.081,127.025-30.996c23.871,1.843,47.28,6.921,70.354,13.403
			c14.297,3.776,29.57,9.31,44.942,10.334c19.123,2.577,41.83,3.635,57.471,15.558c15.879,20.372,2.508,58.884-10.883,78.303
			c-25.902,32.918-49.034,69.106-77.406,99.613c-16.383,17.661-37.504,29.691-56.7,43.625
			c-39.276,27.492-86.256,41.982-132.845,51.155c-23.828,4.349-48.054,4.899-72.036,9.251c-24.296,4.406-47.307,14.019-68.646,25.76
			c-21.742,11.022-39.241,28.94-59.304,42.107C1257.204,1055.623,1233.615,1062.349,1211.404,1072.065z M1872.615,970.647
			c-17.398,5.117-52.204,11.2-82.254,16.194l-29.43,3.46c-73.492,9.459-147.785,16.218-219.829,34.133
			c-48.015,11.391-96.289,22.617-145.367,28.239c-36.886,4.714-74.001-0.964-111.052-0.129c-6.443,0.178-12.929,0.631-19.349,1.594
			c15.781-7.83,30.431-18.144,43.853-29.174c28.664-21.219,62.176-37.241,97.243-43.531c23.453-3.959,47.932-4.216,72.11-8.336
			c24.208-4.009,47.779-10.5,70.906-18.364c17.277-5.803,34.208-13.459,50.03-22.801c18.465-7.187,38.808-10.22,58.685-13.315
			c23.762-3.541,47.664-6.279,71.482-9.622c38.744-5.066,78.003-7.04,117.088-5.9c22.115,5.298,54.03,8.563,54.03,24.247
			C1900.763,944.663,1909.424,959.82,1872.615,970.647z M1918.086,886.202c-8.671,2.89-50.106,5.781-70.288,9.316
			c-15.561,0.908-31.098,1.919-46.668,3.285c-48.038,3.755-95.402,12.235-143.316,17.189c-14.549,1.793-29.127,3.443-43.454,6.402
			c0.277-0.192,0.566-0.371,0.842-0.564c20.001-14.315,41.51-26.595,58.314-44.589c2.886-2.978,5.587-6.087,8.325-9.171
			c19.324-8.911,42.956-11.96,64.087-16.457c22.243-4.201,44.499-8.498,66.547-13.841c28.9-8.708,58.229-15.88,87.962-17.029
			c18.099,2.087,36.551,8.203,39.3,17.825C1944.069,853.724,1931.077,881.872,1918.086,886.202z M1978.712,738.694
			c-4.33,15.429-63.711,12.245-44.225,16.575c19.487,4.33,26.904,9.68,18.242,29.167c-4.858,10.93-35.596,22.54-58.219,29.865
			c-16.999,2.576-33.82,6.227-50.226,11.075c-42.409,14.348-88.389,20.825-132.71,26.888c-6.379,0.969-12.697,1.928-19.098,3.275
			c9.372-11.576,18.18-23.516,26.917-35.365c13.837-20.347,31.762-37.598,42.401-59.953c0.969-2.1,1.882-4.254,2.753-6.435
			c21.765-16.03,52.04-31.68,78.206-44.204c24.296-11.172,49.651-22.549,75.948-28.013c12.468,0.141,40.823-3.863,47.02,5.432
			C1974.382,699.992,1983.042,723.264,1978.712,738.694z M1980.877,628.539c-4.132,20.657-53.559,39.336-65.619,48.53
			c-10.055,3.894-19.814,7.988-29.709,12.066c-39.61,16.996-79.86,34.383-117.689,55.326c5.004-16.25,6.475-33.854,0.491-49.958
			c-5.805-13.51-22.229-19.53-38.999-22.813c31.594-37.788,104.497-55.489,157.31-62.222
			C1902.584,615.156,1985.108,607.386,1980.877,628.539z"/>
	</g>
	<path style="fill:#A6D9E1;" d="M1979.193,591.185c-7.699,3.785-12.029,5.357-12.029,5.357
		c-12.029,5.357,17.322,16.36,23.096,19.406c5.773,3.047,9.142-0.641,12.991-5.452c3.849-4.812-0.962-15.878-2.887-21.652
		C1998.44,583.068,1986.891,587.399,1979.193,591.185z"/>
	<path style="fill:#A6D9E1;" d="M2022.498,559.492c0,0-12.991,3.849-11.548,7.699c1.444,3.849,1.444,4.811,9.142,6.255
		c7.699,1.444,17.323-2.887,17.323-6.977C2037.415,562.378,2028.504,557.225,2022.498,559.492z"/>
	<path style="fill:#A6D9E1;" d="M2015.281,544.094c3.848,2.406,12.029,0.963,16.839-2.887c4.812-3.85,0-7.99,0-7.99
		c-2.115-3.771-17.802-7.888-21.283,0C2007.358,541.105,2011.432,541.689,2015.281,544.094z"/>
	<path style="fill:#A6D9E1;" d="M1990.741,511.857c6.098-1.258,18.284-6.736,24.058-15.397c5.774-8.661-0.48-15.397-10.097-21.652
		c-9.615-6.255-14.442,3.368-25.509,11.067c-11.067,7.699-19.248,13.473-26.465,18.765c-7.217,5.293-1.925,6.736,4.812,10.104
		C1964.277,518.112,1987.875,512.447,1990.741,511.857z"/>
	<path style="fill:#A6D9E1;" d="M2009.518,455.63c8.191,1.033,14.905,0.411,24.742-7.769c9.837-8.18-4.064-15.879-4.064-15.879
		c-5.023-4.034-0.962-5.774-8.308-8.18c-7.345-2.405-16.231,12.992-22.005,23.096
		C1994.109,457.004,2001.327,454.598,2009.518,455.63z"/>
	<path style="fill:#A6D9E1;" d="M1945.992,418.51c3.95-1.075,26.945-7.217,25.983-12.915c-0.962-5.699-1.443-7.775-3.368-15.474
		c-1.925-7.699-18.766-5.293-30.313,0c-11.548,5.293-38.494,25.983-37.05,33.43C1902.688,430.999,1944.079,419.032,1945.992,418.51z
		"/>
	<path style="fill:#A6D9E1;" d="M1991.703,432.464c10.104-4.33,0.962-10.104-7.203-13.954c-8.166-3.849-15.892,11.548-15.892,11.548
		C1958.503,436.314,1981.599,436.795,1991.703,432.464z"/>
	<path style="fill:#A6D9E1;" d="M2021.888,407.444c8.053-2.887,0-9.142,0-9.142c-3.576-5.362-20.561,4.812-19.118,9.142
		C2004.214,411.774,2013.837,410.331,2021.888,407.444z"/>
	<path style="fill:#A6D9E1;" d="M2024.126,476.446c1.147,4.527,9.92,5.578,15.694,3.654c5.774-1.925,2.887-7.306,2.887-7.306
		C2037.895,465.487,2022.979,471.92,2024.126,476.446z"/>
	<path style="fill:#A6D9E1;" d="M1769.61,456.009c14.642-6.528,45.265-12.959,61.865-20.704c16.601-7.745,28.87-9.577,38.253-17.413
		c9.384-7.835,5.774-14.415,5.774-14.415c-42.582,5.897-121.253,52.564-126.651,59.781
		C1743.454,470.477,1754.97,462.537,1769.61,456.009z"/>
	<path style="fill:#A6D9E1;" d="M261.699,596.541c0,0-4.33-1.572-12.029-5.357c-7.698-3.785-19.246-8.116-21.171-2.342
		c-1.925,5.774-6.737,16.841-2.887,21.652c3.85,4.812,7.217,8.499,12.992,5.452C244.378,612.901,273.728,601.898,261.699,596.541z"
		/>
	<path style="fill:#A6D9E1;" d="M206.366,559.492c-6.006-2.267-14.916,2.887-14.916,6.977c0,4.09,9.624,8.42,17.321,6.977
		c7.699-1.444,7.699-2.406,9.143-6.255C219.357,563.341,206.366,559.492,206.366,559.492z"/>
	<path style="fill:#A6D9E1;" d="M196.742,533.217c0,0-4.811,4.141,0,7.99c4.812,3.849,12.992,5.293,16.841,2.887
		c3.85-2.405,7.923-2.989,4.442-10.877C214.545,525.329,198.856,529.446,196.742,533.217z"/>
	<path style="fill:#A6D9E1;" d="M271.323,514.743c6.736-3.368,12.029-4.812,4.811-10.104c-7.218-5.293-15.398-11.067-26.465-18.765
		c-11.067-7.699-15.893-17.322-25.508-11.067c-9.616,6.255-15.871,12.992-10.097,21.652c5.774,8.661,17.96,14.14,24.058,15.397
		C240.989,512.447,264.586,518.112,271.323,514.743z"/>
	<path style="fill:#A6D9E1;" d="M194.604,447.862c9.837,8.18,16.55,8.802,24.742,7.769c8.191-1.033,15.408,1.373,9.635-8.731
		c-5.774-10.104-14.661-25.502-22.006-23.096c-7.346,2.406-3.285,4.146-8.308,8.18C198.667,431.983,184.767,439.682,194.604,447.862
		z"/>
	<path style="fill:#A6D9E1;" d="M282.871,418.51c1.915,0.522,43.306,12.489,44.748,5.042c1.443-7.447-25.501-28.137-37.05-33.43
		c-11.547-5.293-28.388-7.699-30.313,0c-1.925,7.699-2.407,9.775-3.369,15.474C255.926,411.293,278.922,417.435,282.871,418.51z"/>
	<path style="fill:#A6D9E1;" d="M237.16,432.464c10.104,4.331,33.201,3.85,23.096-2.405c0,0-7.726-15.397-15.892-11.548
		C236.198,422.36,227.056,428.134,237.16,432.464z"/>
	<path style="fill:#A6D9E1;" d="M206.975,407.444c8.053,2.887,17.675,4.33,19.119,0c1.443-4.33-15.543-14.504-19.119-9.142
		C206.975,398.302,198.923,404.557,206.975,407.444z"/>
	<path style="fill:#A6D9E1;" d="M204.738,476.446c1.147-4.526-13.769-10.959-18.581-3.653c0,0-2.887,5.381,2.887,7.306
		C194.819,482.024,203.591,480.973,204.738,476.446z"/>
	<path style="fill:#A6D9E1;" d="M359.135,417.893c9.383,7.835,21.653,9.668,38.254,17.413c16.6,7.745,47.223,14.176,61.864,20.704
		c14.641,6.528,26.158,14.468,20.76,7.25c-5.397-7.217-84.068-53.884-126.651-59.781
		C353.362,403.478,349.753,410.058,359.135,417.893z"/>
	<path style="fill:#BCE1E7;" d="M1142.93,1059.384c0,0,6.863-17.207-5.578-19.652c-12.443-2.444-29.765-13.915-25.915,0
		C1115.284,1053.647,1135.93,1080.518,1142.93,1059.384z"/>
	<path style="fill:#BCE1E7;" d="M1134.24,1109.365c6.445,6.639,12.802,2.984,22.575,0c9.774-2.984-3.999-14.338-13.885-21.074
		c-9.888-6.736-34.613-21.085-34.613-21.085C1098.462,1069.218,1127.796,1102.727,1134.24,1109.365z"/>
	<path style="fill:#BCE1E7;" d="M1121.299,1148.196c6.497,1.444,10.106-0.722,11.938-5.863c1.834-5.141-16.574-12.936-16.574-12.936
		c-6.896-3.366-12.686-2.853-10.352,3.642C1108.646,1139.535,1114.804,1146.753,1121.299,1148.196z"/>
	<path style="fill:#BCE1E7;" d="M1124.908,1169.848c-1.443,5.052,13.713,14.435,19.91,13.713c6.196-0.722,12.568-4.33,11.996-7.939
		C1156.245,1172.014,1125.504,1167.767,1124.908,1169.848z"/>
	<path style="fill:#BCE1E7;" d="M1122.021,1252.849c5.774-7.939-28.87,0-28.87,0s-7.939,1.444-9.382,5.814
		c-1.443,4.371,12.27,10.786,18.044,9.343C1107.587,1266.563,1116.247,1260.789,1122.021,1252.849z"/>
	<path style="fill:#BCE1E7;" d="M1089.689,1283.681c-5.198,4.534-11.694,9.748-3.755,10.389c7.939,0.641,12.813,4.411,17.233,0
		c4.42-4.412,16.8-5.855,7.722-15.959C1110.889,1278.11,1094.887,1279.147,1089.689,1283.681z"/>
	<g>
		<path style="fill:#3EA5A6;" d="M1721.895,557.086c66.525-21.171,59.539-27.907,109.581-38.974
			c50.041-11.067,46.192-5.293,61.59-10.105c15.396-4.811,30.793-13.472,47.154-23.096c16.359-9.623,7.698-15.397-9.274-25.983
			c-16.973-10.585-106.205,7.699-106.205,7.699c-175.144,61.589-274.264,156.86-283.065,172.919
			c-8.799,16.059,16.5-7.398,46.266-28.569C1617.707,589.805,1655.37,578.257,1721.895,557.086z"/>
		<path style="fill:#3EA5A6;" d="M1654.06,649.151c0,0,87.919-30.476,115.55-45.513c27.633-15.036,22.41-10.947,44.966-16.922
			c22.557-5.975,40.957-3.648,69.827-8.459c28.87-4.812,52.928-2.887,70.25-7.699c17.322-4.812,17.322-8.661,17.322-20.311
			c0-11.651-12.51-31.654-126.891,0C1730.703,581.902,1654.06,649.151,1654.06,649.151z"/>
		<path style="fill:#3EA5A6;" d="M1868.045,620.599c-40.535,8.723-118.366,44.267-118.366,44.267
			c-10.265,4.58,77.947-5.774,107.695-15.715c29.748-9.941,51.088,13.79,73.572,6.17c22.482-7.621,24.671-12.588,33.332-26.061
			C1972.937,615.788,1908.578,611.877,1868.045,620.599z"/>
		<path style="fill:#3EA5A6;" d="M1465.643,842.353c66.254-29.414,104.079-35.063,147.383-54.309
			c43.306-19.246,89.497-45.229,108.868-73.393c19.371-28.165-29.957-23.802-57.865-24.764
			c-27.908-0.962-63.513-23.096-127.027-14.435c-63.515,8.661-77.949,25.983-77.949,25.983
			C1257.927,840.01,1205,953.565,1205,953.565c-11.431,19.936-21.172,72.174-16.36,87.572c4.812,15.397,0,0,22.133-32.719
			c22.134-32.719,45.23-35.606,100.083-78.911C1365.709,886.202,1399.39,871.767,1465.643,842.353z"/>
		<path style="fill:#3EA5A6;" d="M288.645,484.911c16.359,9.624,31.757,18.284,47.154,23.096
			c15.398,4.812,11.548-0.962,61.589,10.105c50.04,11.067,43.056,17.803,109.581,38.974
			c66.525,21.172,104.189,32.719,133.954,53.891c29.766,21.171,55.065,44.628,46.266,28.569
			c-8.801-16.059-107.921-111.33-283.065-172.919c0,0-89.232-18.284-106.205-7.699C280.946,469.514,272.286,475.288,288.645,484.911
			z"/>
		<path style="fill:#3EA5A6;" d="M414.287,586.716c22.556,5.976,17.333,1.886,44.965,16.922
			c27.633,15.036,115.552,45.513,115.552,45.513s-76.643-67.25-191.024-98.904c-114.381-31.654-126.892-11.651-126.892,0
			c0,11.651,0,15.5,17.322,20.311c17.322,4.812,41.38,2.887,70.25,7.699C373.33,583.068,391.73,580.741,414.287,586.716z"/>
		<path style="fill:#3EA5A6;" d="M297.919,655.321c22.484,7.62,43.825-16.111,73.572-6.17
			c29.747,9.941,117.96,20.295,107.695,15.715c0,0-77.833-35.544-118.366-44.267c-40.533-8.723-104.893-4.812-96.233,8.661
			C273.248,642.733,275.435,647.701,297.919,655.321z"/>
		<path style="fill:#3EA5A6;" d="M769.809,701.435c0,0-14.435-17.322-77.949-25.983c-63.513-8.661-99.12,13.473-127.026,14.435
			c-27.908,0.962-77.236-3.4-57.865,24.764c19.371,28.164,65.563,54.147,108.867,73.393c43.306,19.247,81.131,24.895,147.384,54.309
			c66.253,29.414,99.935,43.849,154.788,87.154c54.852,43.305,77.947,46.192,100.082,78.911
			c22.133,32.719,17.322,48.116,22.133,32.719c4.811-15.397-4.93-67.636-16.36-87.572
			C1023.863,953.565,970.937,840.01,769.809,701.435z"/>
	</g>
	<path style="fill:#93D1DC;" d="M1726.582,916.24c-18.285-5.568-66.313,0.756-116.442,25.777
		c-50.13,25.021-123.178,41.38-155.09,44.508c-31.911,3.128-91.266,22.855-91.266,22.855
		c-18.284,15.397,50.041,33.682,81.797,29.832c31.757-3.849,82.761-19.247,130.878-29.832
		c48.116-10.586,90.459-19.247,121.253-30.795c30.795-11.548,43.305-6.736,56.777-23.096
		C1767.962,939.13,1744.866,921.808,1726.582,916.24z"/>
	<path style="fill:#93D1DC;" d="M1693.863,1022.955c-15.397-8.56-69.288,6.635-111.63,16.778
		c-42.343,10.144-87.572,14.878-146.274,24.5c-58.702,9.624-84.685,3.85-118.366,4.812c-33.682,0.962-56.777,16.359-56.777,16.359
		c-20.209,21.172,76.024,17.322,113.554,16.36c37.531-0.962,81.798,1.924,111.631,0c29.831-1.925,89.496,0,127.026-7.556
		C1650.558,1086.653,1709.259,1031.514,1693.863,1022.955z"/>
	<path style="fill:#93D1DC;" d="M1696.381,871.685c0,0-46.786,31.839-41.974,36.651c4.811,4.811,67.363-9.623,76.231-9.213
		c8.868,0.41,33.474-24.468,27.883-35.185C1752.932,853.221,1696.381,871.685,1696.381,871.685z"/>
	<path style="fill:#93D1DC;" d="M1845.084,723.569c-23.923,6.736-71.348,30.281-71.348,30.281
		c-14.621,7.031-43.306,68.838-51.842,81.349c-8.537,12.51,6.612,4.811,19.122,4.808c12.511-0.004,59.665-8.657,77.949-18.281
		c18.284-9.623,21.171-17.322,35.605-31.757c14.436-14.435,22.134-43.305,24.059-58.702
		C1880.554,715.87,1869.007,716.832,1845.084,723.569z"/>
	<path style="fill:#93D1DC;" d="M1441.733,1180.4c36.087,9.83,158.784,46.467,197.758,52.032c38.974,5.565,50.522,17.531,91.147,0
		c40.626-17.53-29.077-63.133-29.077-63.133c-141.462-27.255-290.143-21.825-310.351-10.277
		C1371.001,1170.57,1405.646,1170.57,1441.733,1180.4z"/>
	<path style="fill:#93D1DC;" d="M1561.355,1306.121c25.795,9.967,24.727,1.581,53.597,0c28.87-1.581,72.174-4.193,28.87-28.01
		c-43.304-23.818-188.654-36.306-192.311-36.498C1432.927,1240.642,1535.559,1296.154,1561.355,1306.121z"/>
	<path style="fill:#93D1DC;" d="M1486.48,1382.08c-54.852-41.101-64.957-29.63-101.243-55.04
		c-36.287-25.41-110.95-28.297-110.95-28.297c-39.146,13.077,53.409,34.942,86.438,70.985
		c33.029,36.044,52.137,46.235,88.549,69.331c36.413,23.096,25.658,24.54,62.709,32.789c37.05,8.249,32.238-8.249,52.313-16.91
		C1584.372,1446.277,1541.333,1423.182,1486.48,1382.08z"/>
	<path style="fill:#93D1DC;" d="M865.08,1009.38c0,0-59.355-19.727-91.266-22.855c-31.913-3.127-104.962-19.487-155.091-44.508
		c-50.129-25.021-98.157-31.345-116.442-25.777c-18.284,5.568-41.38,22.89-27.908,39.25c13.473,16.359,25.983,11.548,56.778,23.096
		c30.795,11.548,73.137,20.209,121.254,30.795c48.116,10.586,99.12,25.983,130.876,29.832
		C815.038,1043.062,883.364,1024.778,865.08,1009.38z"/>
	<path style="fill:#93D1DC;" d="M854.494,1101.764c37.532,0.963,133.764,4.812,113.556-16.36c0,0-23.096-15.398-56.778-16.359
		c-33.682-0.963-59.664,4.812-118.366-4.812c-58.703-9.623-103.932-14.357-146.274-24.5c-42.342-10.143-96.233-25.337-111.63-16.778
		c-15.398,8.559,43.304,63.699,80.835,71.254c37.532,7.556,97.195,5.631,127.028,7.556
		C772.697,1103.688,816.963,1100.802,854.494,1101.764z"/>
	<path style="fill:#93D1DC;" d="M498.225,899.122c8.869-0.41,71.419,14.025,76.232,9.213c4.811-4.812-41.974-36.651-41.974-36.651
		s-56.552-18.464-62.142-7.747C464.751,874.654,489.357,899.532,498.225,899.122z"/>
	<path style="fill:#93D1DC;" d="M374.293,789.969c14.435,14.435,17.322,22.134,35.605,31.757
		c18.284,9.624,65.438,18.277,77.949,18.281c12.51,0.003,27.659,7.702,19.122-4.808c-8.537-12.51-37.221-74.317-51.841-81.349
		c0,0-47.425-23.545-71.348-30.281c-23.922-6.736-35.47-7.699-33.545,7.699C352.158,746.664,359.857,775.534,374.293,789.969z"/>
	<path style="fill:#93D1DC;" d="M837.654,1159.022c-20.21-11.548-168.89-16.978-310.352,10.277c0,0-69.703,45.602-29.077,63.133
		c40.626,17.531,52.173,5.565,91.147,0c38.975-5.565,161.671-42.202,197.758-52.032
		C823.218,1170.57,857.862,1170.57,837.654,1159.022z"/>
	<path style="fill:#93D1DC;" d="M613.911,1306.121c28.87,1.581,27.802,9.967,53.598,0c25.796-9.967,128.427-65.479,109.846-64.508
		c-3.658,0.191-149.007,12.68-192.312,36.498C541.738,1301.928,585.043,1304.54,613.911,1306.121z"/>
	<path style="fill:#93D1DC;" d="M664.568,1454.938c20.075,8.661,15.264,25.158,52.313,16.91c37.05-8.249,26.296-9.692,62.709-32.789
		c36.411-23.096,55.519-33.287,88.549-69.331c33.029-36.043,125.584-57.908,86.438-70.985c0,0-74.663,2.887-110.95,28.297
		c-36.287,25.41-46.391,13.939-101.243,55.04C687.53,1423.182,644.492,1446.277,664.568,1454.938z"/>
</g>
</svg>
